<svg width="34" height="34" viewBox="0 0 34 34" fill="none" xmlns="http://www.w3.org/2000/svg">
  <path d="M18.4167 5.66668H8.5C7.71762 5.66668 7.08338 6.30097 7.08333 7.08334V21.7273C7.72738 21.4213 8.44788 21.2501 9.20833 21.2501H26.9167V14.1667H29.75V29.7501C29.75 30.5325 29.1158 31.1667 28.3333 31.1667H9.20833C6.46992 31.1667 4.25 28.9468 4.25 26.2084V7.08334C4.25004 4.73617 6.15281 2.83334 8.5 2.83334H18.4167V5.66668ZM9.20833 24.0834C8.03475 24.0834 7.08338 25.0348 7.08333 26.2084C7.08333 27.382 8.03472 28.3334 9.20833 28.3334H26.9167V24.0834H9.20833ZM26.2498 0.466563C26.5 -0.136633 27.3335 -0.136649 27.5835 0.466563L27.9418 1.33261C28.5538 2.80991 29.6956 3.98958 31.1307 4.62803L32.1476 5.08042C32.7287 5.33943 32.7287 6.18544 32.1476 6.44452L31.0712 6.9232C29.6719 7.54552 28.5507 8.68341 27.928 10.1121L27.578 10.9131C27.3224 11.4998 26.5111 11.4998 26.2554 10.9131L25.9067 10.1121C25.2841 8.68318 24.1615 7.54559 22.7622 6.9232L21.6858 6.44452C21.1047 6.18547 21.1047 5.3394 21.6858 5.08042L22.7027 4.62803C24.1379 3.9896 25.2797 2.80993 25.8916 1.33261L26.2498 0.466563Z" fill="white" />
</svg>