<svg width="58" height="58" viewBox="0 0 58 58" fill="none" xmlns="http://www.w3.org/2000/svg">
<path d="M21.7499 2.41675V7.25008H36.2499V2.41675H41.0832V7.25008H50.7499C52.0846 7.25008 53.1666 8.33207 53.1666 9.66675V48.3334C53.1666 49.6681 52.0846 50.7501 50.7499 50.7501H7.24992C5.91524 50.7501 4.83325 49.6681 4.83325 48.3334V9.66675C4.83325 8.33207 5.91524 7.25008 7.24992 7.25008H16.9166V2.41675H21.7499ZM48.3332 24.1667H9.66658V45.9167H48.3332V24.1667ZM36.3357 26.9121L39.7534 30.33L27.7916 42.2917L19.2474 33.7476L22.6651 30.33L27.7916 35.4564L36.3357 26.9121ZM16.9166 12.0834H9.66658V19.3334H48.3332V12.0834H41.0832V14.5001H36.2499V12.0834H21.7499V14.5001H16.9166V12.0834Z" fill="#B6FF03"/>
</svg>
