<svg width="34" height="34" viewBox="0 0 34 34" fill="none" xmlns="http://www.w3.org/2000/svg">
  <path d="M5.66667 2.83325H28.3333C29.1158 2.83325 29.75 3.46752 29.75 4.24992V29.7499C29.75 30.5323 29.1158 31.1666 28.3333 31.1666H5.66667C4.88427 31.1666 4.25 30.5323 4.25 29.7499V4.24992C4.25 3.46752 4.88427 2.83325 5.66667 2.83325ZM7.08333 5.66659V28.3333H26.9167V5.66659H7.08333ZM9.91667 8.49992H24.0833V14.1666H9.91667V8.49992ZM9.91667 16.9999H12.75V19.8333H9.91667V16.9999ZM9.91667 22.6666H12.75V25.4999H9.91667V22.6666ZM15.5833 16.9999H18.4167V19.8333H15.5833V16.9999ZM15.5833 22.6666H18.4167V25.4999H15.5833V22.6666ZM21.25 16.9999H24.0833V25.4999H21.25V16.9999Z" fill="white" />
</svg>