<svg width="58" height="58" viewBox="0 0 58 58" fill="none" xmlns="http://www.w3.org/2000/svg">
  <path
    d="M30.001 12.0833H50.75C52.0847 12.0833 53.1666 13.1653 53.1666 14.5V48.3333C53.1666 49.6681 52.0847 50.75 50.75 50.75H7.24998C5.9153 50.75 4.83331 49.6681 4.83331 48.3333V9.66667C4.83331 8.33199 5.9153 7.25 7.24998 7.25H25.1676L30.001 12.0833ZM9.66665 12.0833V45.9167H48.3333V16.9167H27.999L23.1656 12.0833H9.66665ZM26.5833 21.75H31.4166V41.0833H26.5833V21.75ZM36.25 29H41.0833V41.0833H36.25V29ZM16.9166 33.8333H21.75V41.0833H16.9166V33.8333Z"
    fill="#004BE2" />
</svg>