<svg width="17" height="17" viewBox="0 0 17 17" fill="none" xmlns="http://www.w3.org/2000/svg">
<path d="M2.83407 1.22852C2.95869 1.22852 3.08111 1.2614 3.18896 1.32384L14.5252 7.88693C14.8638 8.08293 14.9794 8.51629 14.7833 8.85487C14.7213 8.96197 14.6324 9.05094 14.5252 9.11299L3.18896 15.6761C2.85041 15.872 2.41706 15.7565 2.22105 15.4179C2.15861 15.3101 2.12573 15.1877 2.12573 15.0631V1.93685C2.12573 1.54564 2.44286 1.22852 2.83407 1.22852ZM8.70765 9.50101L5.52148 12.6879L9.55829 10.3512L8.70765 9.50101ZM3.54169 4.33456V12.6639L7.70607 8.49943L3.54169 4.33456ZM10.8262 7.38182L9.70923 8.49943L10.8269 9.61661L12.7564 8.49993L10.8262 7.38182ZM5.52077 4.31047L8.70765 7.49785L9.55758 6.64726L5.52077 4.31047Z" fill="#B6FF03"/>
</svg>
