<svg width="1440" height="605" viewBox="0 0 1440 605" fill="none" xmlns="http://www.w3.org/2000/svg">
<path d="M-78 236.991L-12.0457 97.0902C-9.14368 90.9344 -3.31051 86.6768 3.43694 85.7894L274.273 50.1714C278.043 49.6756 281.88 50.2437 285.286 51.9334C332.78 75.4902 388.988 122.06 395.59 138.566C404.149 159.962 446.944 373.217 531.106 366.085C615.268 358.952 781.453 229.145 806.416 203.469C831.379 177.793 986.152 99.3381 1008.26 138.566C1030.37 177.793 1041.07 247.689 1054.62 274.792C1064.68 294.898 1136.43 303.474 1178.66 305.752C1184.59 306.071 1190.08 308.858 1193.71 313.554C1241.83 375.699 1331.21 490.696 1344.91 506.59C1362.74 527.274 1460.46 490.899 1464.02 515.862C1467.59 540.825 1459.03 619.28 1479 626.412" stroke="#547AFF" stroke-opacity="0.6" stroke-width="100" stroke-linecap="round"/>
</svg>
