<svg width="298" height="83" viewBox="0 0 298 83" fill="none" xmlns="http://www.w3.org/2000/svg">
<path d="M297.018 5.47983C297.29 5.52575 297.548 5.34223 297.594 5.06993C297.64 4.79763 297.456 4.53967 297.184 4.49375L297.101 4.98679L297.018 5.47983ZM0.10083 78.3256L-5.46128e-06 78.8154C35.2589 86.0752 60.3485 83.2317 80.9387 75.3219C101.506 67.421 117.552 54.4722 134.697 41.6282C151.856 28.7742 170.149 15.9939 195.284 8.29303C220.416 0.592983 252.427 -2.03945 297.018 5.47983L297.101 4.98679L297.184 4.49375C252.475 -3.04553 220.302 -0.417993 194.991 7.3369C169.682 15.091 151.274 27.9605 134.098 40.8278C116.908 53.7051 100.987 66.5489 80.5801 74.3884C60.196 82.219 35.3046 85.0637 0.201666 77.8359L0.10083 78.3256Z" fill="#ffffff"/>
</svg>
