<svg width="58" height="58" viewBox="0 0 58 58" fill="none" xmlns="http://www.w3.org/2000/svg">
  <path d="M33.8333 34.4424V39.4918C32.3215 38.9575 30.6948 38.6667 29 38.6667C20.9919 38.6667 14.5 45.1586 14.5 53.1667H9.66667C9.66667 42.4892 18.3225 33.8334 29 33.8334C30.669 33.8334 32.2886 34.0449 33.8333 34.4424ZM29 31.4167C20.9888 31.4167 14.5 24.928 14.5 16.9167C14.5 8.9055 20.9888 2.41675 29 2.41675C37.0113 2.41675 43.5 8.9055 43.5 16.9167C43.5 24.928 37.0113 31.4167 29 31.4167ZM29 26.5834C34.3408 26.5834 38.6667 22.2576 38.6667 16.9167C38.6667 11.5759 34.3408 7.25008 29 7.25008C23.6592 7.25008 19.3333 11.5759 19.3333 16.9167C19.3333 22.2576 23.6592 26.5834 29 26.5834ZM42.9995 48.1261L51.5436 39.5819L54.9613 42.9996L42.9995 54.9614L34.4554 46.4172L37.873 42.9996L42.9995 48.1261Z" fill="#004BE2" />
</svg>