<svg width="58" height="58" viewBox="0 0 58 58" fill="none" xmlns="http://www.w3.org/2000/svg">
<path d="M48.3453 16.9162V12.0828H9.67855V45.9162H48.3453V41.0829H29.0119C27.6772 41.0829 26.5953 40.0009 26.5953 38.6662V19.3328C26.5953 17.9981 27.6772 16.9162 29.0119 16.9162H48.3453ZM7.26188 7.24951H50.7619C52.0966 7.24951 53.1786 8.33148 53.1786 9.66618V48.3329C53.1786 49.6676 52.0966 50.7495 50.7619 50.7495H7.26188C5.9272 50.7495 4.84521 49.6676 4.84521 48.3329V9.66618C4.84521 8.33148 5.9272 7.24951 7.26188 7.24951ZM31.4286 21.7495V36.2495H48.3453V21.7495H31.4286ZM36.2619 26.5829H43.5119V31.4162H36.2619V26.5829Z" fill="#B6FF03"/>
</svg>
