<svg width="34" height="34" viewBox="0 0 34 34" fill="none" xmlns="http://www.w3.org/2000/svg">
  <path d="M16.2916 2.83325C23.7245 2.83325 29.75 8.85875 29.75 16.2916C29.75 18.4578 29.2381 20.5046 28.3289 22.3175L31.8186 25.808C32.3718 26.3613 32.3718 27.2583 31.8186 27.8115L27.8116 31.8185C27.2583 32.3717 26.3613 32.3717 25.8081 31.8185L22.3176 28.3289C20.5047 29.2381 18.4579 29.7499 16.2916 29.7499C8.85881 29.7499 2.83331 23.7244 2.83331 16.2916C2.83331 8.85875 8.85881 2.83325 16.2916 2.83325ZM23.8047 21.7992L21.8012 23.8026L26.8098 28.8114L28.8133 26.8079L23.8047 21.7992ZM26.4448 13.1509L13.151 26.4447C14.1436 26.7514 15.1983 26.9166 16.2916 26.9166C17.6617 26.9166 18.9711 26.6573 20.1737 26.185L18.796 24.8063C18.2427 24.2531 18.2427 23.3561 18.796 22.8029L22.8029 18.796C23.3561 18.2426 24.2532 18.2426 24.8064 18.796L26.1851 20.1737C26.6574 18.9711 26.9166 17.6616 26.9166 16.2916C26.9166 15.1982 26.7515 14.1435 26.4448 13.1509ZM16.2916 5.66659C10.4236 5.66659 5.66665 10.4236 5.66665 16.2916C5.66665 19.994 7.56045 23.2542 10.4322 25.1562L25.1563 10.4322C23.2543 7.56038 19.9941 5.66659 16.2916 5.66659Z" fill="white" />
</svg>