<svg width="58" height="58" viewBox="0 0 58 58" fill="none" xmlns="http://www.w3.org/2000/svg">
<path d="M19.3334 7.25C9.99061 7.25 2.41675 14.8239 2.41675 24.1667C2.41675 33.5095 9.99061 41.0833 19.3334 41.0833H21.9214C21.8085 40.2941 21.7501 39.4871 21.7501 38.6667C21.7501 37.8462 21.8085 37.0393 21.9214 36.25H19.3334C12.66 36.25 7.25008 30.8401 7.25008 24.1667C7.25008 17.4932 12.66 12.0833 19.3334 12.0833H38.6667C45.3401 12.0833 50.7501 17.4932 50.7501 24.1667C50.7501 24.9951 50.6667 25.804 50.5079 26.5853C51.9229 27.9724 53.0952 29.6061 53.9555 31.4167C54.9993 29.2192 55.5834 26.7612 55.5834 24.1667C55.5834 14.8239 48.0096 7.25 38.6667 7.25H19.3334ZM38.6667 31.4167C34.6626 31.4167 31.4167 34.6625 31.4167 38.6667C31.4167 42.6708 34.6626 45.9167 38.6667 45.9167C42.6709 45.9167 45.9167 42.6708 45.9167 38.6667C45.9167 34.6625 42.6709 31.4167 38.6667 31.4167ZM26.5834 38.6667C26.5834 31.9933 31.9934 26.5833 38.6667 26.5833C45.3401 26.5833 50.7501 31.9933 50.7501 38.6667C50.7501 41.1295 50.0132 43.4203 48.7481 45.3304L54.8756 51.4578L51.4579 54.8755L45.3305 48.748C43.4203 50.0132 41.1296 50.75 38.6667 50.75C31.9934 50.75 26.5834 45.34 26.5834 38.6667Z" fill="#B6FF03"/>
</svg>
