<svg width="34" height="34" viewBox="0 0 34 34" fill="none" xmlns="http://www.w3.org/2000/svg">
  <path d="M28.3403 9.91642V7.08309H5.6736V26.9164H28.3403V24.0831H17.007C16.2245 24.0831 15.5903 23.4489 15.5903 22.6664V11.3331C15.5903 10.5507 16.2245 9.91642 17.007 9.91642H28.3403ZM4.25694 4.24976H29.757C30.5394 4.24976 31.1736 4.88401 31.1736 5.66642V28.3331C31.1736 29.1155 30.5394 29.7498 29.757 29.7498H4.25694C3.47454 29.7498 2.84027 29.1155 2.84027 28.3331V5.66642C2.84027 4.88401 3.47454 4.24976 4.25694 4.24976ZM18.4236 12.7498V21.2498H28.3403V12.7498H18.4236ZM21.257 15.5831H25.507V18.4164H21.257V15.5831Z" fill="white" />
</svg>