<svg width="141" height="42" viewBox="0 0 141 42" fill="none" xmlns="http://www.w3.org/2000/svg">
<g clip-path="url(#clip0_827_523)">
<path d="M9.28316 26.0721C9.93795 26.7418 10.3652 27.6047 10.5047 28.5335C9.59875 28.3886 8.75503 27.9539 8.10023 27.2842C7.44544 26.6145 7.01821 25.7515 6.87866 24.8228C7.78464 24.9677 8.62836 25.4024 9.28316 26.0721Z" fill="#08213D"/>
<path d="M9.28316 9.85668C8.62836 10.5264 7.78464 10.9633 6.87866 11.1061C7.01821 10.1795 7.44544 9.31653 8.10023 8.64683C8.75503 7.97714 9.5966 7.54018 10.5047 7.39746C10.3652 8.32626 9.93795 9.18698 9.28316 9.85668Z" fill="#08213D"/>
<path d="M11.765 23.5341C12.7375 24.5287 14.0021 25.1611 15.3589 25.3368C15.1592 26.0701 14.7792 26.7376 14.2447 27.2844C13.7122 27.8289 13.0596 28.2176 12.3425 28.4218C12.1708 27.0341 11.5525 25.7408 10.5799 24.7461C9.60741 23.7514 8.34291 23.1191 6.98608 22.9456C7.18574 22.21 7.56574 21.5425 8.10031 20.998C8.63273 20.4534 9.28538 20.0626 10.0046 19.8584C10.1742 21.2461 10.7925 22.5394 11.765 23.5341Z" fill="#08213D"/>
<path d="M10.0046 16.0707C9.28538 15.8665 8.63273 15.4778 8.10031 14.9333C7.56574 14.3866 7.18574 13.7191 6.98608 12.9857C8.34291 12.81 9.60741 12.1777 10.5799 11.183C11.5525 10.1883 12.1708 8.89503 12.3425 7.50732C13.0596 7.71153 13.7122 8.10017 14.2447 8.64691C14.7792 9.19145 15.1592 9.85896 15.3589 10.5945C14.0021 10.768 12.7375 11.4004 11.765 12.395C10.7925 13.3897 10.1742 14.683 10.0046 16.0707Z" fill="#08213D"/>
<path d="M14.2446 20.9979C14.8994 21.6676 15.3266 22.5305 15.4662 23.4571C14.5602 23.3144 13.7165 22.8775 13.0617 22.21C12.4069 21.5403 11.9796 20.6773 11.8401 19.7485C12.7482 19.8913 13.5898 20.3282 14.2446 20.9979Z" fill="#08213D"/>
<path d="M13.0617 13.7211C13.7165 13.0514 14.5602 12.6144 15.4662 12.4717C15.3266 13.4005 14.8994 14.2634 14.2446 14.9331C13.5898 15.6028 12.7482 16.0376 11.8401 16.1825C11.9796 15.2537 12.4069 14.3908 13.0617 13.7211Z" fill="#08213D"/>
<path d="M21.8231 17.9653C20.7003 18.2112 19.6311 18.7799 18.7595 19.6714C17.9544 20.4948 17.4177 21.4917 17.1515 22.5456C16.8831 21.4917 16.3486 20.4948 15.5413 19.6714C14.6933 18.8041 13.6414 18.2178 12.4971 17.9653C13.6414 17.7106 14.6933 17.1265 15.5413 16.257C16.3292 15.4512 16.8788 14.4675 17.1536 13.3916C17.4198 14.4434 17.9566 15.4358 18.7595 16.257C19.6311 17.1485 20.7003 17.7172 21.8231 17.9653Z" fill="#08213D"/>
<path d="M21.239 22.21C20.5842 22.8775 19.7426 23.3144 18.8345 23.4571C18.974 22.5305 19.4012 21.6676 20.056 20.9979C20.7108 20.3282 21.5524 19.8913 22.4605 19.7485C22.321 20.6773 21.8938 21.5403 21.239 22.21Z" fill="#08213D"/>
<path d="M20.056 14.9331C19.4012 14.2634 18.974 13.4005 18.8345 12.4717C19.7426 12.6144 20.5842 13.0514 21.239 13.7211C21.8938 14.3908 22.321 15.2537 22.4605 16.1825C21.5546 16.0376 20.7108 15.6028 20.056 14.9331Z" fill="#08213D"/>
<path d="M27.3147 22.9456C25.9579 23.1191 24.6934 23.7514 23.7208 24.7461C22.7483 25.7408 22.13 27.0341 21.9604 28.4218C21.2412 28.2176 20.5885 27.8289 20.0561 27.2844C19.5215 26.7376 19.1416 26.0701 18.9419 25.3368C20.2987 25.1611 21.5632 24.5287 22.5358 23.5341C23.5083 22.5394 24.1266 21.2461 24.2983 19.8584C25.0154 20.0626 25.668 20.4534 26.2026 20.998C26.735 21.5425 27.115 22.21 27.3147 22.9456Z" fill="#08213D"/>
<path d="M22.5358 12.395C21.5632 11.4004 20.2987 10.768 18.9419 10.5945C19.1416 9.85896 19.5215 9.19145 20.0561 8.64691C20.5885 8.10017 21.2412 7.71153 21.9604 7.50732C22.13 8.89503 22.7483 10.1883 23.7208 11.183C24.2082 11.6792 24.7664 12.0876 25.3739 12.3906C25.9815 12.6958 26.6363 12.8979 27.3147 12.9857C27.115 13.7191 26.735 14.3866 26.2026 14.9333C25.668 15.4778 25.0154 15.8665 24.2983 16.0707C24.1266 14.683 23.5083 13.3897 22.5358 12.395Z" fill="#08213D"/>
<path d="M25.0175 26.0721C25.6723 25.4024 26.516 24.9677 27.422 24.8228C27.2824 25.7515 26.8552 26.6145 26.2025 27.2842C25.5456 27.9539 24.704 28.3886 23.7959 28.5335C23.9354 27.6047 24.3627 26.7418 25.0175 26.0721Z" fill="#08213D"/>
<path d="M25.0175 9.85668C24.3627 9.18698 23.9354 8.32626 23.7959 7.39746C24.704 7.54018 25.5477 7.97714 26.2025 8.64683C26.8552 9.31653 27.2824 10.1795 27.422 11.1061C26.516 10.9633 25.6723 10.5264 25.0175 9.85668Z" fill="#08213D"/>
<path d="M17.1563 0C7.68865 0 0.417199 7.85853 0.0135871 17.5329C-0.536012 30.692 17.7854 42 17.7854 42C17.7854 42 34.2991 31.2124 34.2991 17.5329C34.2991 7.84975 26.6219 0 17.1563 0ZM27.4978 28.6082C26.3321 29.8027 24.7799 30.4592 23.1289 30.4592H23.1268C21.4758 30.4592 19.9258 29.8027 18.7601 28.6082C17.955 27.7848 17.4183 26.788 17.1521 25.734C16.8837 26.788 16.3491 27.7848 15.5419 28.6082C14.3761 29.8027 12.8261 30.4592 11.1752 30.4592H11.173C9.52207 30.4592 7.96989 29.8027 6.80414 28.6082C4.39535 26.1446 4.39535 22.1352 6.80414 19.6716C7.65215 18.8043 8.70412 18.218 9.85055 17.9655C8.70412 17.7108 7.65215 17.1267 6.80414 16.2572C5.63839 15.0649 4.99433 13.4796 4.99433 11.7933C4.99218 10.1026 5.63624 8.51506 6.80414 7.32058C7.96989 6.1261 9.52207 5.46957 11.173 5.46957H11.1752C12.8261 5.46957 14.3761 6.12829 15.5419 7.32058C16.3298 8.12641 16.8794 9.1123 17.1521 10.186C17.4204 9.13645 17.9571 8.14178 18.7601 7.32058C19.9258 6.12829 21.4758 5.46957 23.1268 5.46957H23.1289C24.7799 5.46957 26.3321 6.1261 27.4978 7.32058C29.9088 9.78419 29.9088 13.7936 27.4978 16.2572C26.6262 17.1487 25.557 17.7174 24.4342 17.9655C25.557 18.2114 26.6262 18.7801 27.4978 19.6716C29.9066 22.1352 29.9066 26.1446 27.4978 28.6082Z" fill="#08213D"/>
<path d="M46.8962 14.8409H49.5841V16.6326C50.6404 15.291 52.0316 14.6191 53.7598 14.6191C55.3742 14.6191 56.7268 15.2208 57.8152 16.4218C58.9037 17.6251 59.4468 19.1248 59.4468 20.9253C59.4468 22.7258 58.9037 24.2211 57.8152 25.4156C56.7268 26.61 55.3764 27.2073 53.7598 27.2073C52.0316 27.2073 50.6554 26.5617 49.6335 25.2685V31.8688H46.8984V14.8387L46.8962 14.8409ZM49.5347 20.9253C49.5347 22.021 49.8825 22.9366 50.5781 23.6743C51.2737 24.4099 52.141 24.7788 53.1823 24.7788C54.2235 24.7788 55.0329 24.4099 55.7134 23.6743C56.394 22.9388 56.7332 22.021 56.7332 20.9253C56.7332 19.8296 56.394 18.9381 55.7134 18.2004C55.0329 17.4648 54.1806 17.0959 53.1587 17.0959C52.1367 17.0959 51.2759 17.4604 50.5803 18.1872C49.8847 18.9162 49.5369 19.8274 49.5369 20.9231L49.5347 20.9253Z" fill="#08213D"/>
<path d="M64.7474 9.73584V26.9394H61.9651V9.73584H64.7474Z" fill="#08213D"/>
<path d="M67.2184 20.9013C67.2184 19.0701 67.7702 17.555 68.8736 16.3606C69.9771 15.1661 71.3597 14.5688 73.0235 14.5688C74.6874 14.5688 76.1193 15.2737 77.1734 16.6789V14.8389H79.7411V26.9374H77.1734V25.0974C76.1344 26.5049 74.741 27.2075 72.9978 27.2075C71.2545 27.2075 69.9535 26.6146 68.8586 25.4289C67.7637 24.2432 67.2141 22.7326 67.2141 20.9013H67.2184ZM69.9535 20.9013C69.9535 21.997 70.297 22.906 70.9862 23.6262C71.6581 24.3618 72.5061 24.7307 73.5302 24.7307C74.5543 24.7307 75.413 24.3596 76.1086 23.6153C76.8042 22.8709 77.152 21.9509 77.152 20.8552C77.152 19.7596 76.8085 18.8922 76.1193 18.1567C75.4323 17.4211 74.5757 17.0522 73.5517 17.0522C72.5276 17.0522 71.671 17.4167 70.984 18.1435C70.297 18.8725 69.9514 19.7925 69.9514 20.9035L69.9535 20.9013Z" fill="#08213D"/>
<path d="M84.4471 14.8408L88.4295 24.7304L91.9805 14.8408H94.8122L90.205 27.0623C89.9817 27.6507 89.7756 28.1492 89.5931 28.5598C89.4085 28.9682 89.153 29.4271 88.8245 29.9343C88.4961 30.4415 88.144 30.8499 87.7683 31.1617C87.3926 31.4713 86.9246 31.7348 86.3642 31.9478C85.8039 32.1608 85.1813 32.2662 84.4922 32.2662C83.6764 32.2662 82.8047 32.0949 81.8773 31.7502V29.247C82.6931 29.6225 83.4617 29.8113 84.1809 29.8113C84.9001 29.8113 85.484 29.6554 85.9327 29.3458C86.3793 29.034 86.7807 28.5115 87.1328 27.7759L81.5896 14.843H84.4449L84.4471 14.8408Z" fill="#08213D"/>
<path d="M95.4111 25.5387L96.3944 23.4286C97.0191 23.8546 97.7705 24.2191 98.6508 24.5199C99.531 24.8229 100.394 24.9744 101.242 24.9744C101.978 24.9744 102.605 24.8515 103.125 24.6055C103.644 24.3596 103.904 23.9842 103.904 23.4769C103.904 23.2156 103.84 22.9983 103.713 22.827C103.584 22.6557 103.374 22.513 103.078 22.3966C102.781 22.2825 102.494 22.1924 102.215 22.1266C101.935 22.0607 101.538 21.9882 101.027 21.9048L100.596 21.8301C99.8766 21.7006 99.2884 21.5688 98.8332 21.4371C98.3781 21.3054 97.9122 21.1099 97.4421 20.8486C96.9698 20.5874 96.6177 20.247 96.3858 19.8298C96.1539 19.4126 96.038 18.901 96.038 18.295C96.038 17.1335 96.4846 16.2222 97.382 15.5591C98.2772 14.896 99.5331 14.5645 101.15 14.5645C102.878 14.5645 104.501 14.9092 106.021 15.5943L105.325 17.7285C103.823 17.0412 102.399 16.6987 101.055 16.6987C100.304 16.6987 99.7113 16.8261 99.2798 17.0786C98.8483 17.3333 98.6314 17.6956 98.6314 18.1698C98.6314 18.3345 98.6551 18.4816 98.7023 18.6112C98.7495 18.7429 98.8461 18.8571 98.99 18.9537C99.1338 19.0525 99.2691 19.1338 99.3979 19.1996C99.5267 19.2655 99.7263 19.3314 99.9968 19.3951C100.269 19.4609 100.497 19.5136 100.682 19.5554C100.866 19.5971 101.15 19.6498 101.534 19.7156C102.382 19.8628 103.065 20.0099 103.586 20.157C104.106 20.3041 104.615 20.5127 105.111 20.7828C105.607 21.0528 105.967 21.3998 106.191 21.8257C106.414 22.2517 106.525 22.7677 106.525 23.3715C106.525 24.5836 106.03 25.519 105.038 26.1821C104.046 26.8452 102.734 27.1767 101.102 27.1767C98.9105 27.1767 97.0148 26.6278 95.4154 25.5321L95.4111 25.5387Z" fill="#08213D"/>
<path d="M107.745 14.8409H109.784V10.792H112.496V14.8409H116.094V17.1969H112.496V22.6951C112.496 23.4153 112.64 23.9313 112.927 24.2409C113.2 24.568 113.702 24.7327 114.439 24.7327C115.175 24.7327 115.862 24.5944 116.502 24.3155V26.6715C115.607 27.0316 114.686 27.2117 113.743 27.2117C112.431 27.2117 111.444 26.856 110.781 26.1446C110.117 25.4331 109.784 24.4626 109.784 23.2374V17.2013H107.745V14.8453V14.8409Z" fill="#08213D"/>
<path d="M117.535 20.9013C117.535 19.0701 118.087 17.555 119.19 16.3606C120.294 15.1661 121.676 14.5688 123.34 14.5688C125.004 14.5688 126.436 15.2737 127.49 16.6789V14.8389H130.057V26.9374H127.49V25.0974C126.451 26.5049 125.057 27.2075 123.314 27.2075C121.571 27.2075 120.27 26.6146 119.175 25.4289C118.08 24.2432 117.531 22.7326 117.531 20.9013H117.535ZM120.27 20.9013C120.27 21.997 120.613 22.906 121.303 23.6262C121.975 24.3618 122.823 24.7307 123.847 24.7307C124.871 24.7307 125.729 24.3596 126.425 23.6153C127.121 22.8709 127.468 21.9509 127.468 20.8552C127.468 19.7596 127.125 18.8922 126.436 18.1567C125.749 17.4211 124.892 17.0522 123.868 17.0522C122.844 17.0522 121.987 17.4167 121.3 18.1435C120.613 18.8725 120.268 19.7925 120.268 20.9035L120.27 20.9013Z" fill="#08213D"/>
<path d="M132.243 14.8409H134.282V10.792H136.994V14.8409H140.592V17.1969H136.994V22.6951C136.994 23.4153 137.138 23.9313 137.425 24.2409C137.698 24.568 138.2 24.7327 138.937 24.7327C139.673 24.7327 140.36 24.5944 141 24.3155V26.6715C140.105 27.0316 139.184 27.2117 138.241 27.2117C136.93 27.2117 135.942 26.856 135.279 26.1446C134.615 25.4331 134.282 24.4626 134.282 23.2374V17.2013H132.243V14.8453V14.8409Z" fill="#08213D"/>
</g>
<defs>
<clipPath id="clip0_827_523">
<rect width="141" height="42" fill="white"/>
</clipPath>
</defs>
</svg>
