<svg width="115" height="34" viewBox="0 0 115 34" fill="none" xmlns="http://www.w3.org/2000/svg">
<g clip-path="url(#clip0_753_89)">
<path d="M7.57146 21.106C8.10552 21.6481 8.45396 22.3467 8.56778 23.0986C7.82886 22.9813 7.14072 22.6293 6.60667 22.0872C6.07261 21.545 5.72417 20.8465 5.61035 20.0946C6.34927 20.2119 7.03741 20.5639 7.57146 21.106Z" fill="#B6FF03"/>
<path d="M7.57146 7.9792C7.03741 8.52134 6.34927 8.87506 5.61035 8.9906C5.72417 8.2405 6.07261 7.54194 6.60667 6.9998C7.14072 6.45766 7.82711 6.10394 8.56778 5.9884C8.45396 6.74029 8.10552 7.43707 7.57146 7.9792Z" fill="#B6FF03"/>
<path d="M9.59546 19.0512C10.3887 19.8564 11.42 20.3683 12.5266 20.5105C12.3638 21.1042 12.0539 21.6446 11.6179 22.0872C11.1836 22.528 10.6513 22.8426 10.0665 23.0079C9.9264 21.8845 9.42212 20.8376 8.62892 20.0324C7.83572 19.2272 6.80438 18.7153 5.69775 18.5748C5.8606 17.9794 6.17052 17.439 6.60652 16.9982C7.04077 16.5574 7.57307 16.241 8.15965 16.0757C8.29798 17.1991 8.80226 18.246 9.59546 19.0512Z" fill="#B6FF03"/>
<path d="M8.15965 13.0095C7.57307 12.8442 7.04077 12.5296 6.60652 12.0888C6.17052 11.6462 5.8606 11.1058 5.69775 10.5121C6.80438 10.3699 7.83572 9.85801 8.62892 9.0528C9.42212 8.2476 9.9264 7.20065 10.0665 6.07727C10.6513 6.24258 11.1836 6.5572 11.6179 6.99979C12.0539 7.44061 12.3638 7.98097 12.5266 8.57643C11.42 8.71686 10.3887 9.22878 9.59546 10.034C8.80226 10.8392 8.29798 11.8861 8.15965 13.0095Z" fill="#B6FF03"/>
<path d="M11.6179 16.9982C12.1519 17.5403 12.5004 18.2389 12.6142 18.989C11.8752 18.8735 11.1871 18.5198 10.6531 17.9794C10.119 17.4373 9.77055 16.7387 9.65674 15.9868C10.3974 16.1024 11.0838 16.4561 11.6179 16.9982Z" fill="#B6FF03"/>
<path d="M10.6531 11.1076C11.1871 10.5655 11.8752 10.2117 12.6142 10.0962C12.5004 10.8481 12.1519 11.5466 11.6179 12.0888C11.0838 12.6309 10.3974 12.9828 9.65674 13.1002C9.77055 12.3483 10.119 11.6497 10.6531 11.1076Z" fill="#B6FF03"/>
<path d="M17.7989 14.5435C16.8832 14.7426 16.0112 15.2029 15.3003 15.9246C14.6437 16.5912 14.2059 17.3981 13.9888 18.2513C13.7699 17.3981 13.3339 16.5912 12.6755 15.9246C11.9839 15.2225 11.1259 14.7479 10.1926 14.5435C11.1259 14.3373 11.9839 13.8645 12.6755 13.1606C13.3182 12.5082 13.7664 11.7119 13.9905 10.8409C14.2077 11.6924 14.6454 12.4958 15.3003 13.1606C16.0112 13.8822 16.8832 14.3426 17.7989 14.5435Z" fill="#B6FF03"/>
<path d="M17.3227 17.9794C16.7886 18.5198 16.1022 18.8735 15.3616 18.989C15.4754 18.2389 15.8238 17.5403 16.3579 16.9982C16.8919 16.4561 17.5783 16.1024 18.319 15.9868C18.2052 16.7387 17.8567 17.4373 17.3227 17.9794Z" fill="#B6FF03"/>
<path d="M16.3579 12.0888C15.8238 11.5466 15.4754 10.8481 15.3616 10.0962C16.1022 10.2117 16.7886 10.5655 17.3227 11.1076C17.8567 11.6497 18.2052 12.3483 18.319 13.1002C17.5801 12.9828 16.8919 12.6309 16.3579 12.0888Z" fill="#B6FF03"/>
<path d="M22.2781 18.5748C21.1715 18.7153 20.1401 19.2272 19.3469 20.0324C18.5537 20.8376 18.0494 21.8845 17.9111 23.0079C17.3245 22.8426 16.7922 22.528 16.358 22.0872C15.922 21.6446 15.6121 21.1042 15.4492 20.5105C16.5558 20.3683 17.5872 19.8564 18.3804 19.0512C19.1736 18.246 19.6779 17.1991 19.8179 16.0757C20.4028 16.241 20.9351 16.5574 21.3711 16.9982C21.8053 17.439 22.1153 17.9794 22.2781 18.5748Z" fill="#B6FF03"/>
<path d="M18.3804 10.034C17.5872 9.22878 16.5558 8.71686 15.4492 8.57643C15.6121 7.98097 15.922 7.44061 16.358 6.99979C16.7922 6.5572 17.3245 6.24258 17.9111 6.07727C18.0494 7.20065 18.5537 8.2476 19.3469 9.0528C19.7444 9.45452 20.1997 9.78513 20.6952 10.0304C21.1907 10.2775 21.7248 10.441 22.2781 10.5121C22.1153 11.1058 21.8053 11.6462 21.3711 12.0888C20.9351 12.5296 20.4028 12.8442 19.8179 13.0095C19.6779 11.8861 19.1736 10.8392 18.3804 10.034Z" fill="#B6FF03"/>
<path d="M20.4045 21.106C20.9386 20.5639 21.6267 20.2119 22.3656 20.0946C22.2518 20.8465 21.9034 21.545 21.3711 22.0872C20.8353 22.6293 20.1489 22.9813 19.4082 23.0986C19.522 22.3467 19.8705 21.6481 20.4045 21.106Z" fill="#B6FF03"/>
<path d="M20.4045 7.9792C19.8705 7.43707 19.522 6.74029 19.4082 5.9884C20.1489 6.10394 20.837 6.45766 21.3711 6.9998C21.9034 7.54194 22.2518 8.2405 22.3656 8.9906C21.6267 8.87506 20.9386 8.52134 20.4045 7.9792Z" fill="#B6FF03"/>
<path d="M13.9928 0C6.27091 0 0.340294 6.36167 0.0111077 14.1933C-0.437147 24.8459 14.5058 34 14.5058 34C14.5058 34 27.9745 25.2671 27.9745 14.1933C27.9745 6.35456 21.7129 0 13.9928 0ZM22.4273 23.159C21.4765 24.126 20.2106 24.6575 18.8641 24.6575H18.8623C17.5158 24.6575 16.2516 24.126 15.3008 23.159C14.6442 22.4925 14.2064 21.6855 13.9893 20.8323C13.7704 21.6855 13.3344 22.4925 12.676 23.159C11.7253 24.126 10.461 24.6575 9.11452 24.6575H9.11277C7.76626 24.6575 6.50029 24.126 5.5495 23.159C3.58489 21.1647 3.58489 17.919 5.5495 15.9246C6.24114 15.2225 7.09913 14.7479 8.03416 14.5435C7.09913 14.3373 6.24114 13.8645 5.5495 13.1606C4.59871 12.1954 4.07341 10.9121 4.07341 9.54695C4.07166 8.17827 4.59696 6.89314 5.5495 5.92618C6.50029 4.95922 7.76626 4.42775 9.11277 4.42775H9.11452C10.461 4.42775 11.7253 4.961 12.676 5.92618C13.3187 6.57852 13.7669 7.37662 13.9893 8.24582C14.2082 7.39617 14.6459 6.59097 15.3008 5.92618C16.2516 4.961 17.5158 4.42775 18.8623 4.42775H18.8641C20.2106 4.42775 21.4765 4.95922 22.4273 5.92618C24.3937 7.92054 24.3937 11.1662 22.4273 13.1606C21.7164 13.8823 20.8444 14.3426 19.9287 14.5435C20.8444 14.7426 21.7164 15.2029 22.4273 15.9246C24.3919 17.919 24.3919 21.1647 22.4273 23.159Z" fill="#B6FF03"/>
<path d="M38.2488 12.0141H40.441V13.4646C41.3025 12.3785 42.4372 11.8346 43.8467 11.8346C45.1635 11.8346 46.2666 12.3216 47.1543 13.2939C48.0421 14.268 48.4851 15.482 48.4851 16.9396C48.4851 18.3971 48.0421 19.6076 47.1543 20.5746C46.2666 21.5415 45.1652 22.025 43.8467 22.025C42.4372 22.025 41.3148 21.5024 40.4813 20.4555V25.7986H38.2505V12.0123L38.2488 12.0141ZM40.4007 16.9396C40.4007 17.8265 40.6844 18.5678 41.2517 19.165C41.8191 19.7605 42.5265 20.0591 43.3757 20.0591C44.2249 20.0591 44.885 19.7605 45.4401 19.165C45.9952 18.5695 46.2718 17.8265 46.2718 16.9396C46.2718 16.0526 45.9952 15.3309 45.4401 14.7337C44.885 14.1382 44.1899 13.8396 43.3564 13.8396C42.523 13.8396 41.8208 14.1347 41.2535 14.723C40.6862 15.3132 40.4025 16.0508 40.4025 16.9378L40.4007 16.9396Z" fill="#B6FF03"/>
<path d="M52.8083 7.88141V21.8081H50.5391V7.88141H52.8083Z" fill="#B6FF03"/>
<path d="M54.8236 16.92C54.8236 15.4376 55.2736 14.2111 56.1736 13.2441C57.0736 12.2772 58.2012 11.7937 59.5583 11.7937C60.9153 11.7937 62.0832 12.3643 62.9429 13.5019V12.0123H65.0371V21.8064H62.9429V20.3168C62.0954 21.4562 60.9591 22.025 59.5372 22.025C58.1154 22.025 57.0543 21.5451 56.1613 20.5852C55.2683 19.6254 54.8201 18.4024 54.8201 16.92H54.8236ZM57.0543 16.92C57.0543 17.807 57.3345 18.5429 57.8966 19.1259C58.4446 19.7213 59.1363 20.02 59.9715 20.02C60.8067 20.02 61.5071 19.7196 62.0744 19.117C62.6418 18.5144 62.9254 17.7697 62.9254 16.8827C62.9254 15.9957 62.6453 15.2936 62.0832 14.6981C61.5229 14.1027 60.8242 13.8041 59.989 13.8041C59.1538 13.8041 58.4551 14.0991 57.8948 14.6875C57.3345 15.2776 57.0526 16.0224 57.0526 16.9218L57.0543 16.92Z" fill="#B6FF03"/>
<path d="M68.8755 12.0141L72.1236 20.02L75.0197 12.0141H77.3293L73.5717 21.9077C73.3896 22.384 73.2215 22.7875 73.0726 23.1199C72.922 23.4505 72.7137 23.822 72.4458 24.2326C72.1779 24.6432 71.8907 24.9738 71.5843 25.2262C71.2779 25.4769 70.8961 25.6902 70.4391 25.8626C69.9821 26.035 69.4743 26.1203 68.9123 26.1203C68.2469 26.1203 67.536 25.9817 66.7796 25.7026V23.6763C67.4449 23.9802 68.0718 24.1331 68.6584 24.1331C69.2449 24.1331 69.7212 24.0069 70.0872 23.7563C70.4514 23.5039 70.7788 23.0808 71.066 22.4853L66.5449 12.0159H68.8737L68.8755 12.0141Z" fill="#B6FF03"/>
<path d="M77.8176 20.674L78.6196 18.9659C79.1291 19.3107 79.742 19.6058 80.4599 19.8493C81.1778 20.0946 81.8817 20.2172 82.5733 20.2172C83.1739 20.2172 83.6852 20.1177 84.1089 19.9186C84.5327 19.7195 84.7446 19.4156 84.7446 19.005C84.7446 18.7934 84.692 18.6175 84.5887 18.4788C84.4837 18.3402 84.3121 18.2246 84.0704 18.1304C83.8288 18.038 83.5942 17.9651 83.3665 17.9118C83.1389 17.8585 82.815 17.7998 82.3982 17.7323L82.0463 17.6718C81.4597 17.567 80.9799 17.4603 80.6087 17.3537C80.2375 17.247 79.8575 17.0888 79.4741 16.8773C79.0888 16.6658 78.8017 16.3903 78.6126 16.0525C78.4235 15.7148 78.3289 15.3007 78.3289 14.8101C78.3289 13.8698 78.6931 13.1321 79.425 12.5953C80.1552 12.0585 81.1795 11.7901 82.498 11.7901C83.9076 11.7901 85.2313 12.0692 86.471 12.6237L85.9037 14.3515C84.678 13.7951 83.5171 13.5178 82.421 13.5178C81.8081 13.5178 81.3249 13.6209 80.9729 13.8253C80.621 14.0315 80.4441 14.3248 80.4441 14.7088C80.4441 14.8421 80.4634 14.9612 80.5019 15.066C80.5404 15.1727 80.6192 15.2651 80.7365 15.3433C80.8538 15.4233 80.9642 15.4891 81.0692 15.5424C81.1743 15.5957 81.3371 15.6491 81.5577 15.7006C81.7801 15.7539 81.9657 15.7966 82.1163 15.8304C82.2669 15.8641 82.498 15.9068 82.8115 15.9601C83.5031 16.0792 84.0599 16.1983 84.4854 16.3174C84.9091 16.4365 85.3241 16.6053 85.7286 16.824C86.1331 17.0426 86.4273 17.3235 86.6094 17.6683C86.7915 18.0131 86.8825 18.4308 86.8825 18.9196C86.8825 19.9008 86.478 20.658 85.6691 21.1948C84.8601 21.7317 83.7903 22.0001 82.4595 22.0001C80.6717 22.0001 79.1256 21.5557 77.8211 20.6687L77.8176 20.674Z" fill="#B6FF03"/>
<path d="M87.8772 12.0141H89.5406V8.73639H91.7521V12.0141H94.6868V13.9214H91.7521V18.3722C91.7521 18.9552 91.8695 19.3729 92.1041 19.6236C92.3265 19.8884 92.7362 20.0217 93.3368 20.0217C93.9374 20.0217 94.4977 19.9097 95.0195 19.684V21.5913C94.2893 21.8828 93.5382 22.0285 92.7695 22.0285C91.6996 22.0285 90.8942 21.7406 90.3531 21.1647C89.812 20.5888 89.5406 19.8031 89.5406 18.8113V13.9249H87.8772V12.0177V12.0141Z" fill="#B6FF03"/>
<path d="M95.8616 16.92C95.8616 15.4376 96.3117 14.2111 97.2117 13.2441C98.1117 12.2772 99.2393 11.7937 100.596 11.7937C101.953 11.7937 103.121 12.3643 103.981 13.5019V12.0123H106.075V21.8064H103.981V20.3168C103.134 21.4562 101.997 22.025 100.575 22.025C99.1535 22.025 98.0924 21.5451 97.1994 20.5852C96.3064 19.6254 95.8582 18.4024 95.8582 16.92H95.8616ZM98.0924 16.92C98.0924 17.807 98.3726 18.5429 98.9347 19.1259C99.4827 19.7213 100.174 20.02 101.01 20.02C101.845 20.02 102.545 19.7196 103.113 19.117C103.68 18.5144 103.963 17.7697 103.963 16.8827C103.963 15.9957 103.683 15.2936 103.121 14.6981C102.561 14.1027 101.862 13.8041 101.027 13.8041C100.192 13.8041 99.4932 14.0991 98.9329 14.6875C98.3726 15.2776 98.0907 16.0224 98.0907 16.9218L98.0924 16.92Z" fill="#B6FF03"/>
<path d="M107.858 12.0141H109.521V8.73639H111.733V12.0141H114.667V13.9214H111.733V18.3722C111.733 18.9552 111.85 19.3729 112.085 19.6236C112.307 19.8884 112.717 20.0217 113.317 20.0217C113.918 20.0217 114.478 19.9097 115 19.684V21.5913C114.27 21.8828 113.519 22.0285 112.75 22.0285C111.68 22.0285 110.875 21.7406 110.334 21.1647C109.793 20.5888 109.521 19.8031 109.521 18.8113V13.9249H107.858V12.0177V12.0141Z" fill="#B6FF03"/>
</g>
<defs>
<clipPath id="clip0_753_89">
<rect width="115" height="34" fill="white"/>
</clipPath>
</defs>
</svg>
